<svg version="1.2" baseProfile="tiny-ps" xmlns="http://www.w3.org/2000/svg" viewBox="0 0 621 462"><style>.shp3{fill:#f37427}.shp4{fill:#c03c96}.shp5{fill:#9d248f}.shp6{fill:#8e278f}.shp8{fill:#8c2471}.shp14{fill:#5acae9}.shp23{fill:#f79921}.shp27{fill:#ee592d}</style><path d="M507.4-.1h16.3l-7 33.5-9.3-33.5Z" style="fill:#ab3895"/><path d="m448.6 28.3 68.1 5.1-52.2 83.6-15.9-88.7Zm172.8 21.9v55.2L585.5 122l35.9-71.8Z" style="fill:#088ca9"/><path class="shp3" d="M621.4 273.9v59.9l-39.3-12.3 39.3-47.6Z"/><path class="shp4" d="M5.2-.1h41.2l85 15.7-48.3 26.5L5.2-.1Z"/><path class="shp5" d="M46.4-.1h102l-17 15.7-85-15.7Z"/><path class="shp6" d="M148.4-.1H182l13.3 65.9-63.9-50.2 17-15.7Z"/><path class="shp5" d="m83.1 42.1 48.3-26.5 63.9 50.2L83.1 42.1Z"/><path d="m83.1 42.1 54 46.6 58.2-22.9L83.1 42.1Z" style="fill:#99469b"/><path class="shp8" d="M182-.1h50.2l-36.9 65.9L182-.1Z"/><path class="shp5" d="M232.2-.1h77.4l-82 64 4.6-64Z"/><path d="M309.6-.1h9.4l-9.3 95.7-82.1-31.7 82-64Z" style="fill:#c04e9d"/><path class="shp6" d="M319-.1h8l83.1 95.7H309.7L319-.1Z"/><path class="shp4" d="M327-.1h103.8l-20.7 95.7L327-.1Z"/><path d="M430.8-.1h35.6l-17.8 28.4L430.8-.1Z" style="fill:#611850"/><path class="shp8" d="m430.8-.1 17.8 28.4-38.5 67.3L430.8-.1Z"/><path d="M466.4-.1h41l9.3 33.5-68.1-5.1L466.4-.1Z" style="fill:#ca57a1"/><path d="M523.7-.1h97.7v12.5l-104.7 21 7-33.5Z" style="fill:#2f7987"/><path d="m448.6 28.3-38.5 67.3 54.4 21.4-15.9-88.7Z" style="fill:#99469a"/><path class="shp14" d="M516.7 33.4 464.5 117l57.8-1.3-5.6-82.3Z"/><path d="m585.5 122-68.4-88.2-.4-.4 5.6 82.3 63.2 6.3Z" style="fill:#029bb2"/><path d="M621.4 12.4v37.8L585.5 122l-68.8-88.6 104.7-21Z" style="fill:#00a7cb"/><path class="shp14" d="M621.4 105.4V170l-35.9-48 35.9-16.6Z"/><path d="m522.3 115.7 51.3 39.9 11.9-33.6-63.2-6.3Z" style="fill:#5ac9e9"/><path d="M621.4 170v3.6l-47.8-18 11.9-33.6 35.9 48Zm-99.1-54.3 51.3 39.9-52.8 93.6-24.3-52.7 25.8-80.8Z" style="fill:#00b6d3"/><path d="m464.5 117 57.8-1.3-25.8 80.8-32-79.5Z" style="fill:#018a9f"/><path d="m410.1 95.6-35.5 76.7 89.9-55.3-54.4-21.4Z" style="fill:#8e2890"/><path d="m464.5 117-89.9 55.3 121.9 24.2-32-79.5Z" style="fill:#d173ae"/><path d="m496.5 196.5-14.4 46.4 38.5 6.7-24.1-53.1Z" style="fill:#00a9cc"/><path class="shp23" d="M621.4 173.6v92.9l-47.8-110.9 47.8 18Z"/><path class="shp3" d="m573.6 155.6-53 94 100.8 16.9-47.8-110.9Z"/><path d="M621.4 266.5v7.4l-39.3 47.6-61.5-71.9 100.8 16.9Z" style="fill:#da3427"/><path d="m520.6 249.6 61.5 71.9-37.7 53.6-23.8-125.5Z" style="fill:#ef4136"/><path d="M621.4 333.8v25.8l-39.3-38.1 39.3 12.3Z" style="fill:#ef4137"/><path class="shp27" d="M621.4 359.6v26l-77-10.5 37.7-53.6 39.3 38.1Z"/><path d="M621.4 385.6v70.6l-77-81.1 77 10.5Z" style="fill:#b7d432"/><path class="shp5" d="m187 106.9 27-18.2V115l-27-8.1Z"/><path d="m307 121.1 35.8 41.1 18.8-39.8-54.6-1.3Z" style="fill:#00a8cc"/><path class="shp23" d="M262.5 135.2 247 167.6l29-9.4-13.5-23Z"/><path class="shp27" d="m387.9 192.5 7.5 39.2 34.3-30.4-41.8-8.8Z"/><path d="m456 293-10.7 36.4 49.2-37.1-38.5.7Z" style="fill:#2f7887"/><path class="shp6" d="m503.2 300.4-23.6 124.8 42.5-39.8-18.9-85Z"/><path d="m416.3 362.5-5.4 20.2 20.2-4.7-14.8-15.5Z" style="fill:#bec735"/><path d="M534.9 415.7 512.7 444l32.3-4.7-10.1-23.6Z" style="fill:#c14e9d"/></svg>